<?xml version="1.0" encoding="UTF-8" standalone="no"?>
<svg
   width="16"
   height="16"
   version="1.1"
   id="svg1"
   sodipodi:docname="AnimatablePercentControl.svg"
   inkscape:version="1.3.2 (091e20e, 2023-11-25, custom)"
   xmlns:inkscape="http://www.inkscape.org/namespaces/inkscape"
   xmlns:sodipodi="http://sodipodi.sourceforge.net/DTD/sodipodi-0.dtd"
   xmlns="http://www.w3.org/2000/svg"
   xmlns:svg="http://www.w3.org/2000/svg">
  <defs
     id="defs1" />
  <sodipodi:namedview
     id="namedview1"
     pagecolor="#505050"
     bordercolor="#eeeeee"
     borderopacity="1"
     inkscape:showpageshadow="0"
     inkscape:pageopacity="0"
     inkscape:pagecheckerboard="0"
     inkscape:deskcolor="#505050"
     inkscape:zoom="32"
     inkscape:cx="5.484375"
     inkscape:cy="9.140625"
     inkscape:window-width="1920"
     inkscape:window-height="1001"
     inkscape:window-x="-9"
     inkscape:window-y="-9"
     inkscape:window-maximized="1"
     inkscape:current-layer="svg1" />
  <text
     xml:space="preserve"
     style="font-size:13.3333px;font-family:Cambria;-inkscape-font-specification:Cambria;fill:#8654ce;stroke-width:5.66929;stroke-linecap:round;stroke-linejoin:round;stroke-opacity:0.2;font-weight:normal;font-style:normal;font-stretch:normal;font-variant:normal"
     x="4.4930115"
     y="10.958069"
     id="text1"><tspan
       sodipodi:role="line"
       id="tspan1" /></text>
  <g
     id="g7" />
  <path
     id="rect92-2"
     style="fill:#8eef97;stroke-width:1.29486;stroke-linecap:round;stroke-miterlimit:3.9;paint-order:stroke fill markers"
     d="M 6.1191406 1.578125 L 2.6601562 7.5664062 L 3.2597656 7.9121094 L 6.7167969 1.9238281 L 6.1191406 1.578125 z M 2.3964844 1.9824219 A 1.3831828 1.3831828 0 0 0 1.0957031 2.6699219 A 1.3831828 1.3831828 0 0 0 1.6015625 4.5605469 A 1.3831828 1.3831828 0 0 0 3.4902344 4.0527344 A 1.3831828 1.3831828 0 0 0 2.984375 2.1640625 A 1.3831828 1.3831828 0 0 0 2.3964844 1.9824219 z M 2.2382812 2.8457031 A 0.51869356 0.51869356 0 0 1 2.5527344 2.9121094 A 0.51869356 0.51869356 0 0 1 2.7421875 3.6210938 A 0.51869356 0.51869356 0 0 1 2.0332031 3.8105469 A 0.51869356 0.51869356 0 0 1 1.84375 3.1035156 A 0.51869356 0.51869356 0 0 1 2.2382812 2.8457031 z M 7.1875 4.75 A 1.3831828 1.3831828 0 0 0 5.8867188 5.4375 A 1.3831828 1.3831828 0 0 0 6.3925781 7.3261719 A 1.3831828 1.3831828 0 0 0 8.2832031 6.8203125 A 1.3831828 1.3831828 0 0 0 7.7753906 4.9296875 A 1.3831828 1.3831828 0 0 0 7.1875 4.75 z M 9.8476562 5 L 9.8476562 9.7949219 L 14.642578 9.7949219 L 14.642578 5 L 9.8476562 5 z M 9.5605469 5.2871094 L 4.9335938 14.5 L 14.355469 10.082031 L 9.5605469 10.082031 L 9.5605469 5.2871094 z M 7.03125 5.6132812 A 0.51869356 0.51869356 0 0 1 7.34375 5.6796875 A 0.51869356 0.51869356 0 0 1 7.5332031 6.3886719 A 0.51869356 0.51869356 0 0 1 6.8261719 6.578125 A 0.51869356 0.51869356 0 0 1 6.6347656 5.8691406 A 0.51869356 0.51869356 0 0 1 7.03125 5.6132812 z " />
</svg>
