<?xml version="1.0" encoding="UTF-8" standalone="no"?>
<svg
   width="16"
   height="16"
   version="1.1"
   id="svg1"
   sodipodi:docname="AnimatedSwitch.svg"
   inkscape:version="1.3.2 (091e20e, 2023-11-25, custom)"
   xmlns:inkscape="http://www.inkscape.org/namespaces/inkscape"
   xmlns:sodipodi="http://sodipodi.sourceforge.net/DTD/sodipodi-0.dtd"
   xmlns="http://www.w3.org/2000/svg"
   xmlns:svg="http://www.w3.org/2000/svg">
  <defs
     id="defs1" />
  <sodipodi:namedview
     id="namedview1"
     pagecolor="#505050"
     bordercolor="#eeeeee"
     borderopacity="1"
     inkscape:showpageshadow="0"
     inkscape:pageopacity="0"
     inkscape:pagecheckerboard="0"
     inkscape:deskcolor="#505050"
     inkscape:zoom="32"
     inkscape:cx="3.421875"
     inkscape:cy="6.890625"
     inkscape:window-width="1920"
     inkscape:window-height="1001"
     inkscape:window-x="-9"
     inkscape:window-y="-9"
     inkscape:window-maximized="1"
     inkscape:current-layer="g2" />
  <text
     xml:space="preserve"
     style="font-size:13.3333px;font-family:Cambria;-inkscape-font-specification:Cambria;fill:#8654ce;stroke-width:5.66929;stroke-linecap:round;stroke-linejoin:round;stroke-opacity:0.2;font-weight:normal;font-style:normal;font-stretch:normal;font-variant:normal"
     x="4.4930115"
     y="10.958069"
     id="text1"><tspan
       sodipodi:role="line"
       id="tspan1" /></text>
  <g
     id="g7" />
  <g
     id="g2"
     transform="matrix(0.06160364,0,0,0.06160364,6.8620535,2.2820062)">
    <path
       id="path1"
       style="fill:#8eef97;fill-opacity:1;stroke-width:16.2328"
       d="M 39.682511,-18.797691 V 9.4829989 H -45.190974 V 37.795393 H 39.682511 V 66.076082 L 82.135106,23.623343 Z m -69.908866,93.370662 a 64.931228,64.931449 0 0 0 -64.931228,64.931449 64.931228,64.931449 0 0 0 64.931228,64.93145 H 67.170487 A 64.931228,64.931449 0 0 0 132.10172,139.50442 64.931228,64.931449 0 0 0 67.170487,74.572971 Z m 0,32.465719 h 41.247816 a 64.931228,64.931449 0 0 0 -8.7822021,32.46573 64.931228,64.931449 0 0 0 8.7822021,32.46572 h -41.247816 a 32.465614,32.465724 0 0 1 -32.465614,-32.46572 32.465614,32.465724 0 0 1 32.465614,-32.46573 z" />
  </g>
</svg>
