<?xml version="1.0" encoding="UTF-8" standalone="no"?>
<svg
   width="16"
   height="16"
   version="1.1"
   id="svg1"
   sodipodi:docname="BoundsCheck.svg"
   inkscape:version="1.3.2 (091e20e, 2023-11-25, custom)"
   xmlns:inkscape="http://www.inkscape.org/namespaces/inkscape"
   xmlns:sodipodi="http://sodipodi.sourceforge.net/DTD/sodipodi-0.dtd"
   xmlns="http://www.w3.org/2000/svg"
   xmlns:svg="http://www.w3.org/2000/svg">
  <defs
     id="defs1" />
  <sodipodi:namedview
     id="namedview1"
     pagecolor="#505050"
     bordercolor="#eeeeee"
     borderopacity="1"
     inkscape:showpageshadow="0"
     inkscape:pageopacity="0"
     inkscape:pagecheckerboard="0"
     inkscape:deskcolor="#505050"
     inkscape:zoom="45.254834"
     inkscape:cx="5.8225824"
     inkscape:cy="8.4300387"
     inkscape:window-width="1920"
     inkscape:window-height="1001"
     inkscape:window-x="-9"
     inkscape:window-y="-9"
     inkscape:window-maximized="1"
     inkscape:current-layer="svg1" />
  <text
     xml:space="preserve"
     style="font-size:13.3333px;font-family:Cambria;-inkscape-font-specification:Cambria;fill:#8654ce;stroke-width:5.66929;stroke-linecap:round;stroke-linejoin:round;stroke-opacity:0.2;font-weight:normal;font-style:normal;font-stretch:normal;font-variant:normal"
     x="4.4930115"
     y="10.958069"
     id="text1"><tspan
       sodipodi:role="line"
       id="tspan1" /></text>
  <g
     id="g7" />
  <g
     id="g3"
     transform="matrix(0.06160364,0,0,0.06160364,6.8620535,2.2820062)" />
  <path
     id="path2-5"
     style="fill:#8eef97;fill-opacity:1;stroke-width:0.0595858;stroke-dasharray:none"
     d="m 8.709677,2.538 4.663522,3.678581 c 0.06308,0.04997 0.10036,0.09344 0.117877,0.132606 0.01032,0.02266 0.01132,0.04335 0.0049,0.05894 -0.01003,0.02543 -0.03511,0.04883 -0.07122,0.07367 0,0 -0.181159,0.08803 -0.306971,0.105593 -0.0024,-1.62e-4 -0.0056,-4.87e-4 -0.0074,0 l -1.458736,0.201365 c -0.02172,0.003 -0.04117,0.0091 -0.05894,0.01965 -0.03464,0.02055 -0.05989,0.05477 -0.07122,0.09331 -0.0061,0.02076 -0.0081,0.04104 -0.0049,0.06385 0.0024,0.01737 0.0074,0.03438 0.01474,0.04911 h -0.0025 l 0.86689,1.775442 c 0.002,0.0049 -1.63e-4,0.01209 -0.0025,0.01965 -0.0036,0.0093 -0.0085,0.01921 -0.01719,0.02455 l -0.928285,0.454296 h -0.0025 c -0.0027,8.85e-4 -0.0049,0.0036 -0.0074,0.0049 -0.0084,0.0024 -0.01831,5.69e-4 -0.02701,-0.0025 -0.0075,-0.0023 -0.01151,-0.0049 -0.01474,-0.0098 L 10.522049,7.510741 c -0.0096,-0.01979 -0.02367,-0.03804 -0.03929,-0.05157 -0.01563,-0.01353 -0.03228,-0.02293 -0.05158,-0.02947 -0.01929,-0.0065 -0.04077,-0.01101 -0.06139,-0.0098 -0.02063,0.0012 -0.04175,0.0075 -0.06139,0.01719 -0.01537,0.0079 -0.02968,0.01783 -0.04175,0.02947 L 9.210663,8.500392 c -0.04546,0.04468 -0.0919,0.08214 -0.137524,0.112961 -0.04568,0.03035 -0.09044,0.05501 -0.132612,0.06876 -0.04125,0.01322 -0.07696,0.01753 -0.103142,0.0098 -0.0082,-0.0023 -0.01483,-0.0082 -0.02211,-0.01473 -0.0073,-0.0065 -0.01385,-0.01378 -0.01965,-0.02456 -0.01002,-0.01848 -0.01852,-0.04172 -0.02455,-0.07121 -0.006,-0.02949 -0.0096,-0.06523 -0.0098,-0.105594 z m 2.584862,7.088728 h -0.0018 c -0.0026,8.69e-4 -0.0069,0.0052 -0.0069,0.0052 0,0 -0.0179,0.0011 -0.02599,-0.0017 -0.007,-0.0021 -0.01086,-0.0058 -0.01387,-0.0104 L 10.433431,7.973832 c -0.009,-0.01841 -0.02185,-0.03592 -0.03638,-0.04851 -0.01454,-0.01259 -0.03057,-0.02164 -0.04852,-0.02772 -0.01795,-0.0061 -0.03798,-0.0098 -0.05717,-0.0087 -0.01919,0.0011 -0.0389,0.0066 -0.05717,0.01559 -0.01431,0.0073 -0.02689,0.01689 -0.03811,0.02772 L 8.85868,9.248366 c -0.0423,0.04157 -0.08577,0.07701 -0.128214,0.105685 -0.04249,0.02823 -0.08378,0.05131 -0.123014,0.06411 -0.03838,0.0123 -0.07267,0.01583 -0.09703,0.0087 -0.0075,-0.0021 -0.01229,-0.0078 -0.01906,-0.01386 -0.0067,-0.006 -0.01367,-0.0125 -0.01905,-0.02252 -0.0093,-0.01719 -0.01692,-0.04013 -0.02252,-0.06757 -0.0056,-0.02744 -0.0084,-0.05947 -0.0087,-0.09702 -0.02008,-1.96641 -0.02692,-3.9331044 -0.05891,-5.8992921 0,0 -0.06482,-0.00247 -0.08144,-0.00173 -0.01662,7.312e-4 -0.03366,0.00254 -0.05025,0.00693 -0.01678,0.00327 -0.03348,0.00903 -0.04851,0.019058 -0.02004,0.012481 -0.03529,0.029237 -0.05025,0.046778 -0.0072,0.00277 -0.01483,0.010827 -0.02945,0.04158 C 6.7916131,6.238333 2.5,13.462 2.5,13.462 l 8.895029,-3.556333 c 0.0067,-0.0023 0.01335,-0.004 0.01906,-0.0069 l 0.589087,-0.28933 0.28588,-0.140337 c 0.0034,-0.0014 0.0075,-0.0014 0.01039,-0.0035 0.07571,-0.04178 0.129792,-0.112781 0.155937,-0.188847 0.02684,-0.07823 -0.01733,-0.206172 -0.01733,-0.206172 0,0 -0.762799,0.369992 -1.143522,0.556148 z M 2.2558594,0.77539062 C 1.8121817,0.77222361 1.5771259,0.83320546 1.2539062,0.91210938 l -0.056641,0.0351562 -0.078125,0.0585938 -0.072266,0.066406 -0.0644531,0.072266 -0.0585938,0.078125 -0.0507812,0.083984 -0.0429688,0.089844 -0.0351562,0.09375 L 0.7695305,1.5878904 0.7539055,1.6894529 0.75,1.7792969 V 4.6835938 5.1972656 H 1.7773438 V 4.6835938 1.8046875 1.8027344 H 5.875 6.3886719 V 0.77539062 H 5.875 Z m 5.1601562,0 V 1.8027344 h 0.5136719 4.1074215 0.513672 V 0.77539062 H 12.037109 7.9296875 Z m 6.1621094,0 V 1.8027344 h 0.511719 0.130859 0.002 v 0.00195 3.1621094 0.5136719 H 15.25 v -0.5136719 -3.1875 L 15.2461,1.6894498 15.23047,1.5878873 15.20508,1.4902313 15.16992,1.3964813 15.12695,1.3066373 15.07617,1.2226533 15.01758,1.1445283 14.95313,1.0722623 14.88086,1.0058563 14.80273,0.9472625 14.71875,0.8964813 14.62891,0.8535125 14.53516,0.8203094 14.4375,0.7949188 14.335938,0.7792938 14.246098,0.7753878 h -0.15625 z M 0.75,6.2246094 v 0.5136718 4.1074218 0.513672 H 1.7773438 V 10.845703 6.7382812 6.2246094 Z m 13.472656,0.2832031 v 0.5136719 4.1074216 0.513672 H 15.25 V 11.128906 7.0214844 6.5078125 Z M 0.75,12.386719 v 0.511719 1.347656 l 0.003906,0.08984 0.015625,0.101562 0.0253906,0.09766 0.0351562,0.09375 0.0429688,0.08984 0.0507812,0.08398 0.0585938,0.07813 0.0644531,0.07227 0.072266,0.06445 0.078125,0.05859 0.083984,0.05078 0.089844,0.04297 0.09375,0.03516 0.097656,0.02539 0.1015625,0.01563 0.089844,0.0039 H 3.75 4.2636719 v -1.02734 H 3.75 1.7792969 1.7773438 v -0.002 -1.322265 -0.511719 z m 13.472656,0.283203 v 0.513672 1.037109 0.002 h -0.002 -2.253906 -0.513672 V 15.25 h 0.513672 2.279297 l 0.08984,-0.0039 0.101562,-0.01563 0.09766,-0.02539 0.09375,-0.03516 0.08984,-0.04297 0.08398,-0.05078 0.07813,-0.05859 0.07227,-0.06445 0.06445,-0.07227 0.05859,-0.07813 0.05078,-0.08398 0.04297,-0.08984 0.03516,-0.09375 0.02539,-0.09766 0.01563,-0.101562 0.0039,-0.08984 v -1.0625 -0.513672 z M 5.2910156,14.222656 V 15.25 H 5.8046875 9.9121094 10.425781 V 14.222656 H 9.9121094 5.8046875 Z" />
</svg>
