<?xml version="1.0" encoding="UTF-8" standalone="no"?>
<svg
   width="16"
   height="16"
   version="1.1"
   id="svg1"
   sodipodi:docname="Carousel.svg"
   inkscape:version="1.3.2 (091e20e, 2023-11-25, custom)"
   xmlns:inkscape="http://www.inkscape.org/namespaces/inkscape"
   xmlns:sodipodi="http://sodipodi.sourceforge.net/DTD/sodipodi-0.dtd"
   xmlns="http://www.w3.org/2000/svg"
   xmlns:svg="http://www.w3.org/2000/svg">
  <defs
     id="defs1" />
  <sodipodi:namedview
     id="namedview1"
     pagecolor="#505050"
     bordercolor="#eeeeee"
     borderopacity="1"
     inkscape:showpageshadow="0"
     inkscape:pageopacity="0"
     inkscape:pagecheckerboard="0"
     inkscape:deskcolor="#505050"
     inkscape:zoom="45.254834"
     inkscape:cx="6.2755727"
     inkscape:cy="7.5461552"
     inkscape:window-width="1920"
     inkscape:window-height="1001"
     inkscape:window-x="-9"
     inkscape:window-y="-9"
     inkscape:window-maximized="1"
     inkscape:current-layer="svg1" />
  <text
     xml:space="preserve"
     style="font-size:13.3333px;font-family:Cambria;-inkscape-font-specification:Cambria;fill:#8654ce;stroke-width:5.66929;stroke-linecap:round;stroke-linejoin:round;stroke-opacity:0.2;font-weight:normal;font-style:normal;font-stretch:normal;font-variant:normal"
     x="4.4930115"
     y="10.958069"
     id="text1"><tspan
       sodipodi:role="line"
       id="tspan1" /></text>
  <g
     id="g7" />
  <path
     id="rect1"
     style="fill:#8eef97;stroke-width:1.00983;stroke-linecap:round;stroke-miterlimit:3.9;paint-order:stroke fill markers"
     d="M 6.5878906,3.25 C 6.2619664,3.25 6,3.5053007 6,3.8222656 V 6.3339844 C 5.4677874,6.4073837 4.9651034,6.5094218 4.5,6.6386719 V 6.2050781 C 4.467678,6.1981224 4.0475257,6.1077072 3.9277344,5.9472656 3.7899997,5.7627915 3.8365665,5.2825145 3.8398438,5.25 H 1.0878906 C 0.7619663,5.25 0.5,5.5053007 0.5,5.8222656 V 12.177734 C 0.5,12.494699 0.7619663,12.75 1.0878906,12.75 H 3.9121094 C 4.2380335,12.75 4.5,12.494699 4.5,12.177734 V 8.2050781 C 4.933584,8.0597122 5.440452,7.9372271 6,7.8496094 V 10.177734 C 6,10.494699 6.2619664,10.75 6.5878906,10.75 H 9.4121094 C 9.738034,10.75 10,10.494699 10,10.177734 V 7.8496094 c 0.559262,0.087319 1.066077,0.2086506 1.5,0.3535156 v 3.974609 c 0,0.316965 0.261966,0.572266 0.587891,0.572266 h 2.824218 C 15.238034,12.75 15.5,12.494699 15.5,12.177734 V 6.2050781 C 15.46768,6.1981181 15.047526,6.1077071 14.927734,5.9472656 14.790001,5.7627915 14.836564,5.2825145 14.839844,5.25 H 12.087891 C 11.761966,5.25 11.5,5.5053007 11.5,5.8222656 v 0.8125 C 11.034934,6.5061128 10.531913,6.4049131 10,6.3320312 V 4.2050781 C 9.967678,4.1981224 9.547526,4.1077072 9.4277344,3.9472656 9.2899996,3.7627915 9.3365668,3.2825145 9.3398438,3.25 Z M 9.34375,3.25 10,4.1992188 V 3.8222656 C 10,3.5053007 9.738034,3.25 9.4121094,3.25 Z m -5.5,2 L 4.5,6.1992188 V 5.8222656 C 4.5,5.5053007 4.2380335,5.25 3.9121094,5.25 Z m 11,0 L 15.5,6.1992188 V 5.8222656 C 15.5,5.5053007 15.238034,5.25 14.912109,5.25 Z" />
</svg>
