<?xml version="1.0" encoding="UTF-8" standalone="no"?>
<svg
   width="16"
   height="16"
   version="1.1"
   id="svg1"
   sodipodi:docname="DistanceCheck.svg"
   inkscape:version="1.3.2 (091e20e, 2023-11-25, custom)"
   xmlns:inkscape="http://www.inkscape.org/namespaces/inkscape"
   xmlns:sodipodi="http://sodipodi.sourceforge.net/DTD/sodipodi-0.dtd"
   xmlns="http://www.w3.org/2000/svg"
   xmlns:svg="http://www.w3.org/2000/svg">
  <defs
     id="defs1" />
  <sodipodi:namedview
     id="namedview1"
     pagecolor="#505050"
     bordercolor="#eeeeee"
     borderopacity="1"
     inkscape:showpageshadow="0"
     inkscape:pageopacity="0"
     inkscape:pagecheckerboard="0"
     inkscape:deskcolor="#505050"
     inkscape:zoom="32"
     inkscape:cx="7.515625"
     inkscape:cy="7.171875"
     inkscape:window-width="1920"
     inkscape:window-height="1001"
     inkscape:window-x="-9"
     inkscape:window-y="-9"
     inkscape:window-maximized="1"
     inkscape:current-layer="svg1" />
  <text
     xml:space="preserve"
     style="font-size:13.3333px;font-family:Cambria;-inkscape-font-specification:Cambria;fill:#8654ce;stroke-width:5.66929;stroke-linecap:round;stroke-linejoin:round;stroke-opacity:0.2;font-weight:normal;font-style:normal;font-stretch:normal;font-variant:normal"
     x="4.4930115"
     y="10.958069"
     id="text1"><tspan
       sodipodi:role="line"
       id="tspan1" /></text>
  <g
     id="g7" />
  <g
     id="g3"
     transform="matrix(0.06160364,0,0,0.06160364,6.8620535,2.2820062)" />
  <path
     id="path2"
     style="fill:#8eef97;fill-opacity:1;stroke-width:0.0412133;stroke-dasharray:none"
     d="M 8 0.5 C 3.8639067 0.5 0.5 3.8639067 0.5 8 C 0.49999994 12.136094 3.8639067 15.5 8 15.5 C 12.136094 15.5 15.5 12.136094 15.5 8 C 15.5 3.8639067 12.136094 0.49999994 8 0.5 z M 8 1.5195312 C 11.585459 1.5195311 14.480469 4.4145407 14.480469 8 C 14.480469 11.585459 11.585459 14.480469 8 14.480469 C 6.3969877 14.480469 4.9327997 13.901831 3.8027344 12.941406 L 11.394531 9.90625 C 11.401231 9.90395 11.408353 9.9013375 11.414062 9.8984375 L 12.003906 9.609375 L 12.289062 9.46875 C 12.292462 9.46735 12.295938 9.4669437 12.298828 9.4648438 C 12.374538 9.4230638 12.428933 9.3534097 12.455078 9.2773438 C 12.481918 9.1991138 12.4375 9.0703125 12.4375 9.0703125 C 12.4375 9.0703125 11.675644 9.4407963 11.294922 9.6269531 L 11.292969 9.6269531 C 11.290369 9.6278251 11.285156 9.6328125 11.285156 9.6328125 C 11.285156 9.6328125 11.267856 9.6336594 11.259766 9.6308594 C 11.252766 9.6287594 11.249104 9.6237406 11.246094 9.6191406 L 10.433594 7.9746094 C 10.424594 7.9561994 10.411014 7.9383712 10.396484 7.9257812 C 10.381944 7.9131913 10.365606 7.9045175 10.347656 7.8984375 C 10.329706 7.8923375 10.310206 7.8875719 10.291016 7.8886719 C 10.271826 7.8897719 10.252645 7.8953069 10.234375 7.9042969 C 10.220065 7.9115969 10.206532 7.9208106 10.195312 7.9316406 L 8.859375 9.2480469 C 8.817075 9.2896168 8.7729127 9.3248407 8.7304688 9.3535156 C 8.6879788 9.3817456 8.6466558 9.4051688 8.6074219 9.4179688 C 8.5690419 9.4302687 8.5341256 9.4348644 8.5097656 9.4277344 C 8.5022656 9.4256344 8.4989575 9.4181694 8.4921875 9.4121094 C 8.4854875 9.4061094 8.4780362 9.400645 8.4726562 9.390625 C 8.4633563 9.373435 8.4548187 9.3497056 8.4492188 9.3222656 C 8.4436188 9.2948257 8.4417062 9.2641125 8.4414062 9.2265625 C 8.4213263 7.260155 8.4148025 5.2923576 8.3828125 3.3261719 C 8.3828125 3.3261719 8.3174012 3.3234788 8.3007812 3.3242188 C 8.2841613 3.3249538 8.26659 3.3276413 8.25 3.3320312 C 8.23322 3.3353012 8.2162019 3.3415345 8.2011719 3.3515625 C 8.1811319 3.3640435 8.1673037 3.3808965 8.1523438 3.3984375 C 8.1451438 3.4012075 8.1376669 3.4087002 8.1230469 3.4394531 C 7.1026661 5.5858654 4.4022755 10.22464 3.1699219 12.322266 C 2.1439516 11.176153 1.5195312 9.6632327 1.5195312 8 C 1.5195312 4.4145407 4.4145407 1.5195313 8 1.5195312 z M 8.7089844 2.5371094 L 8.7617188 8.4765625 C 8.7619187 8.5169265 8.7654844 8.5525413 8.7714844 8.5820312 C 8.7775144 8.6115212 8.7849019 8.6338638 8.7949219 8.6523438 C 8.8007219 8.6631237 8.8071531 8.6712344 8.8144531 8.6777344 C 8.8217331 8.6842644 8.8296906 8.6891063 8.8378906 8.6914062 C 8.8640726 8.6991362 8.9001563 8.6948606 8.9414062 8.6816406 C 8.9835782 8.6678906 9.0265857 8.6436312 9.0722656 8.6132812 C 9.1178896 8.5824603 9.1654775 8.54468 9.2109375 8.5 L 10.267578 7.4667969 C 10.279648 7.4551539 10.293224 7.44536 10.308594 7.4375 C 10.328234 7.427861 10.348511 7.4211119 10.369141 7.4199219 C 10.389761 7.4187329 10.412351 7.4231475 10.431641 7.4296875 C 10.450941 7.4362275 10.466792 7.4454534 10.482422 7.4589844 C 10.498042 7.4725134 10.511884 7.4899756 10.521484 7.5097656 L 11.396484 9.28125 C 11.399714 9.28615 11.402656 9.2887156 11.410156 9.2910156 C 11.418856 9.2940926 11.4291 9.2953687 11.4375 9.2929688 C 11.44 9.2916688 11.442613 9.2899495 11.445312 9.2890625 L 11.447266 9.2890625 L 12.376953 8.8339844 C 12.385643 8.8286444 12.388978 8.8198469 12.392578 8.8105469 C 12.394919 8.8029869 12.398484 8.7959156 12.396484 8.7910156 L 11.529297 7.015625 L 11.53125 7.015625 C 11.52391 7.000887 11.518025 6.9822137 11.515625 6.9648438 C 11.512425 6.9420398 11.515384 6.9231047 11.521484 6.9023438 C 11.532814 6.8638018 11.557157 6.8291457 11.591797 6.8085938 C 11.609567 6.7980488 11.630624 6.7920325 11.652344 6.7890625 L 13.111328 6.5878906 C 13.113128 6.5874222 13.114788 6.5877392 13.117188 6.5878906 C 13.242998 6.5703231 13.423828 6.4824219 13.423828 6.4824219 C 13.459938 6.4575769 13.486064 6.4336311 13.496094 6.4082031 C 13.502514 6.3926161 13.500554 6.3722664 13.490234 6.3496094 C 13.472717 6.3104426 13.436127 6.2667718 13.373047 6.2167969 L 8.7089844 2.5371094 z " />
</svg>
