<?xml version="1.0" encoding="UTF-8" standalone="no"?>
<svg
   width="16"
   height="16"
   version="1.1"
   id="svg1"
   sodipodi:docname="Drawer.svg"
   inkscape:version="1.3.2 (091e20e, 2023-11-25, custom)"
   xmlns:inkscape="http://www.inkscape.org/namespaces/inkscape"
   xmlns:sodipodi="http://sodipodi.sourceforge.net/DTD/sodipodi-0.dtd"
   xmlns="http://www.w3.org/2000/svg"
   xmlns:svg="http://www.w3.org/2000/svg">
  <defs
     id="defs1" />
  <sodipodi:namedview
     id="namedview1"
     pagecolor="#505050"
     bordercolor="#eeeeee"
     borderopacity="1"
     inkscape:showpageshadow="0"
     inkscape:pageopacity="0"
     inkscape:pagecheckerboard="0"
     inkscape:deskcolor="#505050"
     inkscape:zoom="32"
     inkscape:cx="9.640625"
     inkscape:cy="6.421875"
     inkscape:window-width="1920"
     inkscape:window-height="1001"
     inkscape:window-x="-9"
     inkscape:window-y="-9"
     inkscape:window-maximized="1"
     inkscape:current-layer="svg1" />
  <text
     xml:space="preserve"
     style="font-size:13.3333px;font-family:Cambria;-inkscape-font-specification:Cambria;fill:#8654ce;stroke-width:5.66929;stroke-linecap:round;stroke-linejoin:round;stroke-opacity:0.2;font-weight:normal;font-style:normal;font-stretch:normal;font-variant:normal"
     x="4.4930115"
     y="10.958069"
     id="text1"><tspan
       sodipodi:role="line"
       id="tspan1" /></text>
  <g
     id="g7" />
  <path
     id="rect2"
     style="fill:#8eef97;stroke-width:11.0382;stroke-linecap:round;stroke-miterlimit:3.9;paint-order:stroke fill markers"
     d="m 9.032595,1.75 c -0.5540498,-1e-7 -0.9991024,0.4491454 -0.9991024,1.0058593 V 3.296875 H 10.607057 V 3.8925781 H 8.0334926 V 6.9492186 H 5.9128288 4.9798145 v -0.5 l -2.5813397,1.5 2.5813397,1.5000004 v -0.5 h 0.9330143 2.1206638 v 4.296874 C 8.0334925,13.802809 8.4785452,14.25 9.032595,14.25 H 9.885915 13.998953 15 V 13.246093 2.7558593 1.75 H 13.998953 9.885915 Z M 4.9798145,7.6992186 h 0.9330143 2.1206638 v 0.5 H 5.9128288 4.9798145 Z"
     sodipodi:nodetypes="sscccccccccccccssccccccccsccccccc" />
  <g
     id="path4"
     transform="matrix(0.99521529,0,0,0.99999998,-0.23534689,0.2695312)">
    <g
       id="g13">
      <g
         id="path13">
        <path
           style="color:#000000;fill:#8eef97;fill-rule:evenodd;-inkscape-stroke:none"
           d="M 5.4414062,5.8320312 2.2460938,7.6796875 5.4414062,9.5253906 Z M 5.0410156,6.5253906 V 8.8320313 L 3.0449219,7.6796875 Z"
           id="path15" />
      </g>
    </g>
  </g>
</svg>
