<?xml version="1.0" encoding="UTF-8" standalone="no"?>
<svg
   width="16"
   height="16"
   version="1.1"
   id="svg1"
   sodipodi:docname="HoldButton.svg"
   inkscape:version="1.3.2 (091e20e, 2023-11-25, custom)"
   xmlns:inkscape="http://www.inkscape.org/namespaces/inkscape"
   xmlns:sodipodi="http://sodipodi.sourceforge.net/DTD/sodipodi-0.dtd"
   xmlns="http://www.w3.org/2000/svg"
   xmlns:svg="http://www.w3.org/2000/svg">
  <defs
     id="defs1" />
  <sodipodi:namedview
     id="namedview1"
     pagecolor="#505050"
     bordercolor="#eeeeee"
     borderopacity="1"
     inkscape:showpageshadow="0"
     inkscape:pageopacity="0"
     inkscape:pagecheckerboard="0"
     inkscape:deskcolor="#505050"
     inkscape:zoom="32"
     inkscape:cx="7.578125"
     inkscape:cy="11.109375"
     inkscape:window-width="1920"
     inkscape:window-height="1001"
     inkscape:window-x="-9"
     inkscape:window-y="-9"
     inkscape:window-maximized="1"
     inkscape:current-layer="g2" />
  <text
     xml:space="preserve"
     style="font-size:13.3333px;font-family:Cambria;-inkscape-font-specification:Cambria;fill:#8654ce;stroke-width:5.66929;stroke-linecap:round;stroke-linejoin:round;stroke-opacity:0.2;font-weight:normal;font-style:normal;font-stretch:normal;font-variant:normal"
     x="4.4930115"
     y="10.958069"
     id="text1"><tspan
       sodipodi:role="line"
       id="tspan1" /></text>
  <g
     id="g7" />
  <g
     id="g2"
     transform="matrix(0.06160364,0,0,0.06160364,6.8620535,2.2820062)">
    <path
       id="path1-9"
       style="fill:#8eef97;fill-opacity:1;stroke:none;stroke-width:16.2328;stroke-opacity:1"
       d="M 2.2392589,7.2640805 V 58.118343 L -21.22222,42.456248 -39.23049,69.468613 9.4679308,101.93418 c 5.4548142,3.63938 12.5534562,3.63938 18.0082702,0 L 76.174622,69.468613 58.166352,42.456248 34.704873,58.118343 V 7.2640805 Z M -46.7128,129.2953 c -6.063399,0 -10.938122,4.87556 -10.938122,10.9381 v 5.70684 h -14.267115 c -3.878694,0 -7.006739,3.12855 -7.006739,7.00672 v 18.42042 7.00672 H 115.86891 v -24.06383 -1.36331 c 0,-3.87817 -3.12803,-7.00672 -7.00674,-7.00672 H 94.595054 v -5.70684 c 0,-6.06254 -4.874718,-10.9381 -10.938122,-10.9381 h -1.648645 v 9.89184 a 63.536855,19.02034 0 0 1 -4.280134,6.7531 H -40.784021 a 63.536855,19.02034 0 0 1 -4.280134,-6.7531 v -9.89184 z" />
  </g>
</svg>
