<?xml version="1.0" encoding="UTF-8" standalone="no"?>
<svg
   width="16"
   height="16"
   version="1.1"
   id="svg1"
   sodipodi:docname="MaxRatioContainer.svg"
   inkscape:version="1.3.2 (091e20e, 2023-11-25, custom)"
   xmlns:inkscape="http://www.inkscape.org/namespaces/inkscape"
   xmlns:sodipodi="http://sodipodi.sourceforge.net/DTD/sodipodi-0.dtd"
   xmlns="http://www.w3.org/2000/svg"
   xmlns:svg="http://www.w3.org/2000/svg">
  <defs
     id="defs1" />
  <sodipodi:namedview
     id="namedview1"
     pagecolor="#505050"
     bordercolor="#eeeeee"
     borderopacity="1"
     inkscape:showpageshadow="0"
     inkscape:pageopacity="0"
     inkscape:pagecheckerboard="0"
     inkscape:deskcolor="#505050"
     inkscape:zoom="32"
     inkscape:cx="7.140625"
     inkscape:cy="6.953125"
     inkscape:window-width="1920"
     inkscape:window-height="1001"
     inkscape:window-x="-9"
     inkscape:window-y="-9"
     inkscape:window-maximized="1"
     inkscape:current-layer="svg1" />
  <text
     xml:space="preserve"
     style="font-size:13.3333px;font-family:Cambria;-inkscape-font-specification:Cambria;fill:#8654ce;stroke-width:5.66929;stroke-linecap:round;stroke-linejoin:round;stroke-opacity:0.2;font-weight:normal;font-style:normal;font-stretch:normal;font-variant:normal"
     x="4.4930115"
     y="10.958069"
     id="text1"><tspan
       sodipodi:role="line"
       id="tspan1" /></text>
  <g
     id="g7" />
  <path
     id="path76"
     style="color:#000000;fill:#8eef97;stroke-linecap:square;stroke-miterlimit:3.9;stroke-dasharray:18.0028, 18.0028;-inkscape-stroke:none;paint-order:stroke fill markers"
     d="M 0 0 L 0 10.75 L 1.5 10.75 L 1.5 2.9277344 L 7.7480469 9.1757812 L 3.8886719 9.1757812 L 3.8886719 10.589844 L 10.589844 10.589844 L 10.589844 3.8886719 L 9.1757812 3.8886719 L 9.1757812 7.7480469 L 2.9277344 1.5 L 10.251953 1.5 L 10.251953 0 L 0 0 z M 15 9.75 L 15 14.310547 L 12.126953 11.4375 L 13.992188 11.4375 L 13.992188 10.753906 L 10.753906 10.753906 L 10.753906 13.992188 L 11.4375 13.992188 L 11.4375 12.126953 L 14.310547 15 L 9.75 15 L 9.75 16 L 16 16 L 16 9.75 L 15 9.75 z " />
  <g
     id="path78">
    <g
       id="g89" />
  </g>
  <g
     id="path79">
    <g
       id="g91" />
  </g>
</svg>
