<?xml version="1.0" encoding="UTF-8" standalone="no"?>
<svg
   width="16"
   height="16"
   version="1.1"
   id="svg1"
   sodipodi:docname="MotionCheck.svg"
   inkscape:version="1.3.2 (091e20e, 2023-11-25, custom)"
   xmlns:inkscape="http://www.inkscape.org/namespaces/inkscape"
   xmlns:sodipodi="http://sodipodi.sourceforge.net/DTD/sodipodi-0.dtd"
   xmlns="http://www.w3.org/2000/svg"
   xmlns:svg="http://www.w3.org/2000/svg">
  <defs
     id="defs1" />
  <sodipodi:namedview
     id="namedview1"
     pagecolor="#505050"
     bordercolor="#eeeeee"
     borderopacity="1"
     inkscape:showpageshadow="0"
     inkscape:pageopacity="0"
     inkscape:pagecheckerboard="0"
     inkscape:deskcolor="#505050"
     inkscape:zoom="45.254834"
     inkscape:cx="6.8169513"
     inkscape:cy="4.5409514"
     inkscape:window-width="1920"
     inkscape:window-height="1001"
     inkscape:window-x="-9"
     inkscape:window-y="-9"
     inkscape:window-maximized="1"
     inkscape:current-layer="g4" />
  <text
     xml:space="preserve"
     style="font-size:13.3333px;font-family:Cambria;-inkscape-font-specification:Cambria;fill:#8654ce;stroke-width:5.66929;stroke-linecap:round;stroke-linejoin:round;stroke-opacity:0.2;font-weight:normal;font-style:normal;font-stretch:normal;font-variant:normal"
     x="4.4930115"
     y="10.958069"
     id="text1"><tspan
       sodipodi:role="line"
       id="tspan1" /></text>
  <g
     id="g7" />
  <g
     id="g2"
     transform="matrix(0.08123479,0,0,0.08123435,5.4495842,0.82971638)" />
  <g
     id="g3"
     transform="matrix(0.06160364,0,0,0.06160364,6.8620535,2.2820062)" />
  <g
     id="g4"
     transform="matrix(0.08123479,0,0,0.08123435,5.4495842,0.82971638)"
     style="fill:#8eef97;fill-opacity:1">
    <path
       id="path2-5"
       style="fill:#8eef97;fill-opacity:1;stroke-width:0.733503;stroke-dasharray:none"
       d="m 40.131733,21.02908 57.407945,45.283565 c 0.77651,0.615195 1.23543,1.15024 1.45106,1.632386 0.12704,0.278909 0.13935,0.533628 0.0603,0.725505 -0.12347,0.313023 -0.4322,0.601043 -0.87672,0.906883 0,0 -2.23007,1.08361 -3.77881,1.29986 -0.0295,-0.002 -0.0689,-0.006 -0.0911,0 l -17.95703,2.47881 c -0.26738,0.0366 -0.50681,0.11202 -0.72555,0.24183 -0.42642,0.253 -0.73725,0.67426 -0.87672,1.14871 -0.0751,0.25557 -0.0997,0.50523 -0.0603,0.78595 0.0295,0.21383 0.0911,0.42316 0.18145,0.60459 h -0.0308 l 10.67141,21.8558 c 0.0246,0.0603 -0.002,0.14883 -0.0308,0.2419 -0.0443,0.11448 -0.10463,0.23647 -0.21161,0.30221 l -11.42718,5.592411 h -0.0308 c -0.0332,0.0109 -0.0603,0.0443 -0.0911,0.0603 -0.10341,0.0295 -0.2254,0.007 -0.3325,-0.0308 -0.0923,-0.0283 -0.14169,-0.0603 -0.18145,-0.12064 L 62.44194,82.243729 c -0.118176,-0.24362 -0.291377,-0.46828 -0.483659,-0.63482 -0.192406,-0.16657 -0.397367,-0.28226 -0.63495,-0.36277 -0.23746,-0.0805 -0.501879,-0.13552 -0.755711,-0.12088 -0.253955,0.0147 -0.513942,0.0929 -0.75571,0.2116 -0.189205,0.0968 -0.365361,0.21942 -0.513943,0.36275 l -12.999184,12.72652 c -0.559613,0.55002 -1.131289,1.01115 -1.69292,1.39056 -0.562321,0.37361 -1.113316,0.67718 -1.632454,0.84644 -0.507787,0.16274 -0.947377,0.2158 -1.269677,0.12064 -0.100942,-0.0283 -0.182558,-0.10094 -0.272174,-0.18133 -0.08986,-0.08 -0.170494,-0.16963 -0.241892,-0.30233 -0.123346,-0.22749 -0.227981,-0.51358 -0.30221,-0.8766 -0.07386,-0.36303 -0.118176,-0.80299 -0.120638,-1.29987 z m 31.819645,87.26269 h -0.0222 c -0.032,0.0107 -0.0849,0.064 -0.0849,0.064 0,0 -0.22035,0.0135 -0.31994,-0.0209 -0.0862,-0.0258 -0.13368,-0.0714 -0.17074,-0.12802 L 61.351139,87.944539 c -0.11079,-0.22663 -0.268973,-0.44218 -0.447837,-0.59716 -0.178988,-0.15498 -0.376317,-0.26639 -0.597281,-0.34123 -0.220965,-0.0751 -0.467534,-0.12064 -0.703763,-0.1071 -0.236229,0.0135 -0.478859,0.0812 -0.703762,0.19191 -0.176157,0.0899 -0.331016,0.20792 -0.469134,0.34124 L 41.965959,103.63414 c -0.520713,0.51172 -1.055828,0.94799 -1.578314,1.30099 -0.523052,0.34751 -1.031331,0.63162 -1.514302,0.78919 -0.472457,0.15142 -0.894567,0.19487 -1.194439,0.1071 -0.09232,-0.0259 -0.15129,-0.096 -0.234628,-0.17062 -0.08248,-0.0739 -0.168278,-0.15387 -0.234506,-0.27722 -0.114483,-0.21161 -0.208285,-0.494 -0.277221,-0.83179 -0.06894,-0.33779 -0.103404,-0.73208 -0.107097,-1.19432 -0.247185,-24.206631 -0.331385,-48.416768 -0.725182,-72.620663 0,0 -0.797934,-0.03041 -1.002526,-0.0213 -0.204592,0.009 -0.414354,0.03127 -0.618577,0.08531 -0.206562,0.04025 -0.412139,0.11116 -0.597158,0.234605 -0.246693,0.153642 -0.43442,0.359909 -0.618578,0.57584 -0.08863,0.0341 -0.182557,0.133281 -0.362529,0.511853 C 16.520372,66.58041 -36.309372,155.50421 -36.309372,155.50421 l 109.49778,-43.77868 c 0.0825,-0.0283 0.16434,-0.0492 0.23463,-0.0849 l 7.25165,-3.56168 3.51919,-1.72755 c 0.0419,-0.0172 0.0923,-0.0172 0.1279,-0.0431 0.93199,-0.51431 1.59774,-1.38834 1.91958,-2.32472 0.33041,-0.96301 -0.21333,-2.53799 -0.21333,-2.53799 0,0 -9.39005,4.55462 -14.07675,6.84622 z" />
  </g>
</svg>
