<?xml version="1.0" encoding="UTF-8" standalone="no"?>
<svg
   width="16"
   height="16"
   version="1.1"
   id="svg1"
   sodipodi:docname="Page.svg"
   inkscape:version="1.3.2 (091e20e, 2023-11-25, custom)"
   xmlns:inkscape="http://www.inkscape.org/namespaces/inkscape"
   xmlns:sodipodi="http://sodipodi.sourceforge.net/DTD/sodipodi-0.dtd"
   xmlns="http://www.w3.org/2000/svg"
   xmlns:svg="http://www.w3.org/2000/svg">
  <defs
     id="defs1" />
  <sodipodi:namedview
     id="namedview1"
     pagecolor="#505050"
     bordercolor="#eeeeee"
     borderopacity="1"
     inkscape:showpageshadow="0"
     inkscape:pageopacity="0"
     inkscape:pagecheckerboard="0"
     inkscape:deskcolor="#505050"
     inkscape:zoom="22.627417"
     inkscape:cx="0.99436891"
     inkscape:cy="8.1980192"
     inkscape:window-width="1920"
     inkscape:window-height="1001"
     inkscape:window-x="-9"
     inkscape:window-y="-9"
     inkscape:window-maximized="1"
     inkscape:current-layer="g2" />
  <text
     xml:space="preserve"
     style="font-size:13.3333px;font-family:Cambria;-inkscape-font-specification:Cambria;fill:#8654ce;stroke-width:5.66929;stroke-linecap:round;stroke-linejoin:round;stroke-opacity:0.2;font-weight:normal;font-style:normal;font-stretch:normal;font-variant:normal"
     x="4.4930115"
     y="10.958069"
     id="text1"><tspan
       sodipodi:role="line"
       id="tspan1" /></text>
  <g
     id="g7" />
  <g
     id="g2"
     transform="matrix(0.06160364,0,0,0.06160364,6.8620535,2.2820062)">
    <path
       id="rect11"
       style="color:#000000;fill:#8eef97;fill-opacity:1;stroke-width:0.959576;stroke-miterlimit:3.9;-inkscape-stroke:none;paint-order:stroke fill markers"
       d="m -43.178001,-22.076718 c -12.938746,0 -23.588403,11.565574 -23.588403,25.6169459 V 182.09795 c 0,14.05138 10.649657,25.61695 23.588403,25.61695 H 80.122133 c 12.93874,0 23.588397,-3.3225 23.588397,-17.37388 V 28.269459 L 52.475512,-22.076718 H 48.86116 36.306042 34.150113 Z m 0,16.2325202 H 36.306042 V 42.536322 H 88.777563 V 182.09795 c 0,5.33935 -3.73886,9.38442 -8.65543,9.38442 H -43.178001 c -4.916566,0 -8.655422,-4.04507 -8.655422,-9.38442 V 3.5402279 c 0,-5.33935 3.738856,-9.3844257 8.655422,-9.3844257 z M 48.86116,-4.6394401 85.543663,29.981481 H 48.86116 Z" />
  </g>
</svg>
