<?xml version="1.0" encoding="UTF-8" standalone="no"?>
<!-- Created with Inkscape (http://www.inkscape.org/) -->

<svg
   width="16px"
   height="16px"
   viewBox="0 0 100 100"
   version="1.1"
   id="svg1"
   inkscape:version="1.4.2 (f4327f4, 2025-05-13)"
   sodipodi:docname="RouterSlide.svg"
   xmlns:inkscape="http://www.inkscape.org/namespaces/inkscape"
   xmlns:sodipodi="http://sodipodi.sourceforge.net/DTD/sodipodi-0.dtd"
   xmlns="http://www.w3.org/2000/svg"
   xmlns:svg="http://www.w3.org/2000/svg">
  <sodipodi:namedview
     id="namedview1"
     pagecolor="#505050"
     bordercolor="#eeeeee"
     borderopacity="1"
     inkscape:showpageshadow="0"
     inkscape:pageopacity="0"
     inkscape:pagecheckerboard="0"
     inkscape:deskcolor="#505050"
     inkscape:document-units="mm"
     inkscape:zoom="31.728222"
     inkscape:cx="7.6430378"
     inkscape:cy="10.637218"
     inkscape:window-width="1920"
     inkscape:window-height="1001"
     inkscape:window-x="-9"
     inkscape:window-y="-9"
     inkscape:window-maximized="1"
     inkscape:current-layer="layer1" />
  <defs
     id="defs1" />
  <g
     inkscape:label="Layer 1"
     inkscape:groupmode="layer"
     id="layer1">
    <path
       id="rect9"
       style="fill:#8eef97;stroke-width:0.00625;stroke-miterlimit:3.9;paint-order:stroke fill markers"
       d="M 9.1064453 4.9194336 C 5.8230215 4.9194336 3.125 8.5542336 3.125 12.963867 L 3.125 68.994141 C 3.125 73.403777 5.8230215 77.038574 9.1064453 77.038574 L 40.405273 77.038574 C 43.688695 77.038574 46.398926 76.003874 46.398926 71.594238 L 46.398926 48.913574 L 18.75 48.913574 L 18.75 30.163574 L 46.398926 30.163574 L 46.398926 20.727539 L 39.892578 12.82959 L 33.398438 4.9194336 L 32.48291 4.9194336 L 29.296875 4.9194336 L 28.747559 4.9194336 L 9.1064453 4.9194336 z M 59.594727 4.9194336 C 56.311303 4.9194336 53.601074 8.5542336 53.601074 12.963867 L 53.601074 30.163574 L 61.71875 30.163574 L 61.71875 26.5625 L 61.71875 17.663574 L 61.71875 12.5 L 87.5 39.63623 L 61.71875 66.577148 L 61.71875 61.413574 L 61.71875 51.794434 L 61.71875 48.913574 L 53.601074 48.913574 L 53.601074 68.994141 C 53.601074 73.403777 56.311303 77.038574 59.594727 77.038574 L 90.893555 77.038574 C 94.176978 77.038574 96.875 76.003874 96.875 71.594238 L 96.875 20.727539 L 90.368652 12.82959 L 83.874512 4.9194336 L 82.958984 4.9194336 L 79.772949 4.9194336 L 79.223633 4.9194336 L 59.594727 4.9194336 z M 28.369141 80.639648 L 28.369141 91.467285 C 28.369141 93.464871 29.972619 95.068359 31.970215 95.068359 L 68.029785 95.068359 C 70.02738 95.068359 71.630859 93.464871 71.630859 91.467285 L 71.630859 80.639648 L 28.369141 80.639648 z M 31.689453 82.446289 L 40.368652 82.446289 C 41.214517 82.446289 41.882324 83.126309 41.882324 83.972168 L 41.882324 91.748047 C 41.882324 92.593907 41.214517 93.261719 40.368652 93.261719 L 31.689453 93.261719 C 30.84359 93.261719 30.163574 92.593907 30.163574 91.748047 L 30.163574 83.972168 C 30.163574 83.126309 30.84359 82.446289 31.689453 82.446289 z M 45.666504 82.446289 L 54.333496 82.446289 C 55.179361 82.446289 55.859375 83.126309 55.859375 83.972168 L 55.859375 91.748047 C 55.859375 92.593907 55.179361 93.261719 54.333496 93.261719 L 45.666504 93.261719 C 44.820641 93.261719 44.140625 92.593907 44.140625 91.748047 L 44.140625 83.972168 C 44.140625 83.126309 44.820641 82.446289 45.666504 82.446289 z M 59.631348 82.446289 L 68.310547 82.446289 C 69.156411 82.446289 69.836426 83.126309 69.836426 83.972168 L 69.836426 91.748047 C 69.836426 92.593907 69.156411 93.261719 68.310547 93.261719 L 59.631348 93.261719 C 58.785485 93.261719 58.117676 92.593907 58.117676 91.748047 L 58.117676 83.972168 C 58.117676 83.126309 58.785485 82.446289 59.631348 82.446289 z M 33.581543 89.587402 C 33.195653 89.626358 32.897949 89.959949 32.897949 90.356445 C 32.897949 90.779375 33.231855 91.113281 33.654785 91.113281 L 38.40332 91.113281 C 38.82625 91.113281 39.160156 90.779375 39.160156 90.356445 C 39.160156 89.933516 38.82625 89.587402 38.40332 89.587402 L 33.654785 89.587402 C 33.628352 89.587402 33.607269 89.584805 33.581543 89.587402 z M 47.546387 89.587402 C 47.160497 89.626358 46.862793 89.959949 46.862793 90.356445 C 46.862793 90.779375 47.208906 91.113281 47.631836 91.113281 L 52.368164 91.113281 C 52.791094 91.113281 53.137207 90.779375 53.137207 90.356445 C 53.137207 89.933516 52.791094 89.587402 52.368164 89.587402 L 47.631836 89.587402 C 47.605403 89.587402 47.572113 89.584805 47.546387 89.587402 z M 61.523438 89.587402 C 61.137548 89.626358 60.839844 89.959949 60.839844 90.356445 C 60.839844 90.779375 61.17375 91.113281 61.59668 91.113281 L 66.345215 91.113281 C 66.768145 91.113281 67.102051 90.779375 67.102051 90.356445 C 67.102051 89.933516 66.768145 89.587402 66.345215 89.587402 L 61.59668 89.587402 C 61.570247 89.587402 61.549163 89.584805 61.523438 89.587402 z " />
  </g>
</svg>
