<?xml version="1.0" encoding="UTF-8" standalone="no"?>
<svg
   width="16"
   height="16"
   version="1.1"
   id="svg1"
   sodipodi:docname="RouterStack.svg"
   inkscape:version="1.3.2 (091e20e, 2023-11-25, custom)"
   xmlns:inkscape="http://www.inkscape.org/namespaces/inkscape"
   xmlns:sodipodi="http://sodipodi.sourceforge.net/DTD/sodipodi-0.dtd"
   xmlns="http://www.w3.org/2000/svg"
   xmlns:svg="http://www.w3.org/2000/svg">
  <defs
     id="defs1" />
  <sodipodi:namedview
     id="namedview1"
     pagecolor="#505050"
     bordercolor="#eeeeee"
     borderopacity="1"
     inkscape:showpageshadow="0"
     inkscape:pageopacity="0"
     inkscape:pagecheckerboard="0"
     inkscape:deskcolor="#505050"
     inkscape:zoom="32"
     inkscape:cx="7.015625"
     inkscape:cy="7.078125"
     inkscape:window-width="1920"
     inkscape:window-height="1001"
     inkscape:window-x="-9"
     inkscape:window-y="-9"
     inkscape:window-maximized="1"
     inkscape:current-layer="g2" />
  <text
     xml:space="preserve"
     style="font-size:13.3333px;font-family:Cambria;-inkscape-font-specification:Cambria;fill:#8654ce;stroke-width:5.66929;stroke-linecap:round;stroke-linejoin:round;stroke-opacity:0.2;font-weight:normal;font-style:normal;font-stretch:normal;font-variant:normal"
     x="4.4930115"
     y="10.958069"
     id="text1"><tspan
       sodipodi:role="line"
       id="tspan1" /></text>
  <g
     id="g7" />
  <g
     id="g2"
     transform="matrix(0.06160364,0,0,0.06160364,6.8620535,2.2820062)">
    <path
       id="rect13"
       style="fill:#8eef97;stroke-width:9.24964;stroke-miterlimit:3.9;paint-order:stroke fill markers"
       d="m -57.302171,10.03989 c -2.980772,0 -5.389802,2.377268 -5.389802,5.35798 v 41.183523 c 0,2.98071 2.40903,5.38969 5.389802,5.38969 H 94.246302 c 2.98077,0 5.3898,-2.40898 5.3898,-5.38969 V 15.39787 c 0,-2.980712 -2.40903,-5.35798 -5.3898,-5.35798 z m 8.116404,56.813603 c -2.980775,0 -5.389799,2.37728 -5.389799,5.35799 v 41.183507 c 0,2.98072 2.409024,5.38969 5.389799,5.38969 H 102.3627 c 2.98078,0 5.3898,-2.40897 5.3898,-5.38969 V 72.211483 c 0,-2.98071 -2.40902,-5.35799 -5.3898,-5.35799 z M -65.418573,123.6671 c -2.98078,0 -5.3898,2.37726 -5.3898,5.35798 v 41.18352 c 0,2.98071 2.40902,5.38969 5.3898,5.38969 H 86.129902 c 2.98077,0 5.3898,-2.40898 5.3898,-5.38969 v -41.18352 c 0,-2.98072 -2.40903,-5.35798 -5.3898,-5.35798 z" />
  </g>
</svg>
