<?xml version="1.0" encoding="UTF-8" standalone="no"?>
<svg
   width="16"
   height="16"
   version="1.1"
   id="svg1"
   sodipodi:docname="StyleTransitionButton.svg"
   inkscape:version="1.3.2 (091e20e, 2023-11-25, custom)"
   xmlns:inkscape="http://www.inkscape.org/namespaces/inkscape"
   xmlns:sodipodi="http://sodipodi.sourceforge.net/DTD/sodipodi-0.dtd"
   xmlns="http://www.w3.org/2000/svg"
   xmlns:svg="http://www.w3.org/2000/svg">
  <defs
     id="defs1" />
  <sodipodi:namedview
     id="namedview1"
     pagecolor="#505050"
     bordercolor="#eeeeee"
     borderopacity="1"
     inkscape:showpageshadow="0"
     inkscape:pageopacity="0"
     inkscape:pagecheckerboard="0"
     inkscape:deskcolor="#505050"
     inkscape:zoom="22.627417"
     inkscape:cx="5.9883105"
     inkscape:cy="11.159029"
     inkscape:window-width="1920"
     inkscape:window-height="1001"
     inkscape:window-x="-9"
     inkscape:window-y="-9"
     inkscape:window-maximized="1"
     inkscape:current-layer="g4" />
  <text
     xml:space="preserve"
     style="font-size:13.3333px;font-family:Cambria;-inkscape-font-specification:Cambria;fill:#8654ce;stroke-width:5.66929;stroke-linecap:round;stroke-linejoin:round;stroke-opacity:0.2;font-weight:normal;font-style:normal;font-stretch:normal;font-variant:normal"
     x="4.4930115"
     y="10.958069"
     id="text1"><tspan
       sodipodi:role="line"
       id="tspan1" /></text>
  <g
     id="g7" />
  <g
     id="g2"
     transform="matrix(0.08123479,0,0,0.08123435,5.4495842,0.82971638)" />
  <g
     id="g3"
     transform="matrix(0.06160364,0,0,0.06160364,6.8620535,2.2820062)" />
  <g
     id="g4"
     transform="matrix(0.08123479,0,0,0.08123435,5.4495842,0.82971638)"
     style="fill:#8eef97;fill-opacity:1">
    <path
       id="rect7-8"
       style="fill:#8eef97;fill-opacity:1;stroke-width:2.56756;stroke-miterlimit:3.9;paint-order:stroke fill markers"
       d="m -35.057656,3.61034 c -6.199321,0 -11.179728,4.980619 -11.179728,11.180114 V 127.00033 c 0,6.1995 4.980407,11.18012 11.179728,11.18012 h 17.214376 v 10.12221 h -24.619443 v 24.62029 H 105.25394 V 148.30266 H 80.634491 v -10.12221 h 17.21438 c 6.199329,0 11.179729,-4.98062 11.179729,-11.18012 V 14.790454 c 0,-6.199495 -4.9804,-11.180114 -11.179729,-11.180114 z m 12.958867,15.531944 h 106.98879 c 4.76871,0 8.60719,3.838633 8.60719,8.607486 v 86.29125 c 0,4.76883 -3.83848,8.63153 -8.60719,8.63153 h -5.69805 C 76.393813,116.03406 69.826169,111.37221 62.169913,111.37221 H 0.62130275 c -7.65626305,0 -14.22389875,4.66185 -17.02203675,11.30034 h -5.698055 c -4.768707,0 -8.607189,-3.8627 -8.607189,-8.63153 V 27.74977 c 0,-4.768853 3.838482,-8.607486 8.607189,-8.607486 z m 12.9348247,15.531944 c -3.3380987,0 -6.0106057,2.696662 -6.0106057,6.034857 v 60.396655 c 0,3.33821 2.672507,6.03487 6.0106057,6.03487 H 71.955181 c 3.338096,0 6.010606,-2.69666 6.010606,-6.03487 V 40.709085 c 0,-3.338195 -2.67251,-6.034857 -6.010606,-6.034857 z" />
  </g>
</svg>
