<?xml version="1.0" encoding="UTF-8" standalone="no"?>
<svg
   width="16"
   height="16"
   version="1.1"
   id="svg1"
   sodipodi:docname="StyleTransitionPanel.svg"
   inkscape:version="1.3.2 (091e20e, 2023-11-25, custom)"
   xmlns:inkscape="http://www.inkscape.org/namespaces/inkscape"
   xmlns:sodipodi="http://sodipodi.sourceforge.net/DTD/sodipodi-0.dtd"
   xmlns="http://www.w3.org/2000/svg"
   xmlns:svg="http://www.w3.org/2000/svg">
  <defs
     id="defs1" />
  <sodipodi:namedview
     id="namedview1"
     pagecolor="#505050"
     bordercolor="#eeeeee"
     borderopacity="1"
     inkscape:showpageshadow="0"
     inkscape:pageopacity="0"
     inkscape:pagecheckerboard="0"
     inkscape:deskcolor="#505050"
     inkscape:zoom="32"
     inkscape:cx="6.75"
     inkscape:cy="10.203125"
     inkscape:window-width="1920"
     inkscape:window-height="1001"
     inkscape:window-x="-9"
     inkscape:window-y="-9"
     inkscape:window-maximized="1"
     inkscape:current-layer="g4" />
  <text
     xml:space="preserve"
     style="font-size:13.3333px;font-family:Cambria;-inkscape-font-specification:Cambria;fill:#8654ce;stroke-width:5.66929;stroke-linecap:round;stroke-linejoin:round;stroke-opacity:0.2;font-weight:normal;font-style:normal;font-stretch:normal;font-variant:normal"
     x="4.4930115"
     y="10.958069"
     id="text1"><tspan
       sodipodi:role="line"
       id="tspan1" /></text>
  <g
     id="g7" />
  <g
     id="g2"
     transform="matrix(0.08123479,0,0,0.08123435,5.4495842,0.82971638)" />
  <g
     id="g3"
     transform="matrix(0.06160364,0,0,0.06160364,6.8620535,2.2820062)" />
  <g
     id="g4"
     transform="matrix(0.08123479,0,0,0.08123435,5.4495842,0.82971638)"
     style="fill:#8eef97;fill-opacity:1">
    <path
       id="rect7"
       style="stroke-width:18.46504659;stroke-miterlimit:3.9;paint-order:stroke fill markers;stroke:none;stroke-opacity:1;stroke-dasharray:73.86018637, 18.46504659;stroke-dashoffset:0;fill:#8eef97;fill-opacity:1"
       d="M -16.833739,45.181423 H 79.62496 c 3.969763,0 7.165636,3.195874 7.165636,7.165636 v 71.839171 c 0,3.96976 -3.195873,7.16563 -7.165636,7.16563 h -96.458699 c -3.969762,0 -7.165635,-3.19587 -7.165635,-7.16563 V 52.347059 c 0,-3.969762 3.195873,-7.165636 7.165635,-7.165636 z M -47.633607,8.2512339 c -7.372401,0 -13.295758,5.9234291 -13.295758,13.2958301 v 17.479328 h 18.464995 v -2.067706 c 0,-5.325214 4.045379,-9.634738 9.232497,-10.146185 V 8.2512339 Z m 32.866729,0 V 26.716329 H 3.6981175 V 8.2512339 Z m 36.929991,0 V 26.716329 H 40.628108 V 8.2512339 Z m 36.92999,0 V 26.716329 H 77.558098 V 8.2512339 Z m 36.92999,0 V 26.812501 c 5.187117,0.511447 9.232497,4.820971 9.232497,10.146185 v 2.067706 h 18.465 V 21.547064 c 0,-7.372401 -5.92336,-13.2958301 -13.29576,-13.2958301 z M -60.929365,57.491488 V 75.956583 H -42.46437 V 57.491488 Z m 166.184955,0 v 18.465095 h 18.465 V 57.491488 Z M -60.929365,94.421678 V 112.88677 H -42.46437 V 94.421678 Z m 166.184955,0 v 18.465092 h 18.465 V 94.421678 Z M -60.929365,131.35187 v 23.63436 c 0,7.37239 5.923357,13.29583 13.295758,13.29583 h 14.401734 v -18.56127 c -5.187118,-0.51145 -9.232497,-4.82097 -9.232497,-10.14618 v -8.22274 z m 166.184955,0 v 8.22274 c 0,5.32521 -4.04538,9.63473 -9.232497,10.14618 v 18.56127 h 14.401737 c 7.3724,0 13.29576,-5.92344 13.29576,-13.29583 v -23.63436 z m -120.022468,18.46509 v 18.4651 H 3.6981175 v -18.4651 z m 36.929991,0 v 18.4651 h 18.464995 v -18.4651 z m 36.92999,0 v 18.4651 h 18.464995 v -18.4651 z" />
  </g>
</svg>
