<?xml version="1.0" encoding="UTF-8" standalone="no"?>
<svg
   width="16"
   height="16"
   version="1.1"
   id="svg1"
   sodipodi:docname="SwapContainer.svg"
   inkscape:version="1.3.2 (091e20e, 2023-11-25, custom)"
   xmlns:inkscape="http://www.inkscape.org/namespaces/inkscape"
   xmlns:sodipodi="http://sodipodi.sourceforge.net/DTD/sodipodi-0.dtd"
   xmlns="http://www.w3.org/2000/svg"
   xmlns:svg="http://www.w3.org/2000/svg">
  <defs
     id="defs1" />
  <sodipodi:namedview
     id="namedview1"
     pagecolor="#505050"
     bordercolor="#eeeeee"
     borderopacity="1"
     inkscape:showpageshadow="0"
     inkscape:pageopacity="0"
     inkscape:pagecheckerboard="0"
     inkscape:deskcolor="#505050"
     inkscape:zoom="32"
     inkscape:cx="7.765625"
     inkscape:cy="4.921875"
     inkscape:window-width="1920"
     inkscape:window-height="1001"
     inkscape:window-x="-9"
     inkscape:window-y="-9"
     inkscape:window-maximized="1"
     inkscape:current-layer="g4" />
  <text
     xml:space="preserve"
     style="font-size:13.3333px;font-family:Cambria;-inkscape-font-specification:Cambria;fill:#8654ce;stroke-width:5.66929;stroke-linecap:round;stroke-linejoin:round;stroke-opacity:0.2;font-weight:normal;font-style:normal;font-stretch:normal;font-variant:normal"
     x="4.4930115"
     y="10.958069"
     id="text1"><tspan
       sodipodi:role="line"
       id="tspan1" /></text>
  <g
     id="g7" />
  <g
     id="g2"
     transform="matrix(0.08123479,0,0,0.08123435,5.4495842,0.82971638)" />
  <g
     id="g3"
     transform="matrix(0.06160364,0,0,0.06160364,6.8620535,2.2820062)" />
  <g
     id="g4"
     transform="matrix(0.08123479,0,0,0.08123435,5.4495842,0.82971638)"
     style="fill:#8eef97;fill-opacity:1">
    <path
       id="rect1"
       style="fill:#8eef97;stroke-width:5.42346;stroke-miterlimit:3.9;paint-order:stroke fill markers"
       d="m 33.251393,6.2631586 c -17.890975,0 -34.14793266,4.0726514 -46.278476,10.9608624 -12.130545,6.888208 -20.529549,17.013486 -20.529549,28.938994 h -7.423114 l 12.033563,12.004754 11.801592,-12.004754 h -7.336124 c 0,-7.601178 5.543377,-15.143597 15.9480956,-21.051813 10.4047192,-5.908217 25.2873394,-9.771985 41.7840124,-9.771985 16.496674,0 31.379295,3.863768 41.784014,9.771985 10.404717,5.908216 15.948095,13.450635 15.948095,21.051813 h 9.075908 c 0,-11.925508 -8.398998,-22.050786 -20.529541,-28.938994 C 67.399325,10.33581 51.142371,6.2631586 33.251393,6.2631586 Z M -57.420784,61.24145 c -1.94727,0 -3.508581,1.561347 -3.508581,3.508637 V 166.76149 c 0,1.9473 1.561311,3.50864 3.508581,3.50864 H 0.05035604 c 1.94726956,0 3.50858196,-1.56134 3.50858196,-3.50864 V 64.750087 c 0,-1.94729 -1.5613124,-3.508637 -3.50858196,-3.508637 z m 120.161658,0 c -1.947269,0 -3.50858,1.561347 -3.50858,3.508637 V 166.76149 c 0,1.9473 1.561311,3.50864 3.50858,3.50864 h 57.471136 c 1.94727,0 3.50857,-1.56134 3.50857,-3.50864 V 64.750087 c 0,-1.94729 -1.5613,-3.508637 -3.50857,-3.508637 z" />
  </g>
</svg>
