{
	"asset":{
		"generator":"Khronos glTF Blender I/O v4.1.62",
		"version":"2.0"
	},
	"scene":0,
	"scenes":[
		{
			"extras":{
				"lp":{
					"mask_assets":[
						{
							"name":"Spots",
							"thumbnail":"Spots.jpg",
							"asset_type":0,
							"blend_file":"mask_basics.blend"
						},
						{
							"name":"Scratches",
							"thumbnail":"Scratches.jpg",
							"asset_type":0,
							"blend_file":"mask_basics.blend"
						},
						{
							"name":"Object Random",
							"thumbnail":"Object Random.jpg",
							"asset_type":0,
							"blend_file":"mask_basics.blend"
						},
						{
							"name":"Image Texture",
							"thumbnail":"Image Texture.jpg",
							"asset_type":0,
							"blend_file":"mask_basics.blend"
						},
						{
							"name":"Image Lite",
							"thumbnail":"Image Lite.png",
							"asset_type":0,
							"blend_file":"mask_basics.blend"
						},
						{
							"name":"ID Mask",
							"thumbnail":"ID Mask.jpg",
							"asset_type":0,
							"blend_file":"mask_basics.blend"
						},
						{
							"name":"Heavy Damage",
							"thumbnail":"Heavy Damage.jpg",
							"asset_type":0,
							"blend_file":"mask_basics.blend"
						},
						{
							"name":"Gradient Position",
							"thumbnail":"Gradient Position.jpg",
							"asset_type":0,
							"blend_file":"mask_basics.blend"
						},
						{
							"name":"Fingerprints",
							"thumbnail":"Fingerprints.jpg",
							"asset_type":0,
							"blend_file":"mask_basics.blend"
						},
						{
							"name":"Dust",
							"thumbnail":"Dust.jpg",
							"asset_type":0,
							"blend_file":"mask_basics.blend"
						},
						{
							"name":"Droplets Big",
							"thumbnail":"Droplets Big.jpg",
							"asset_type":0,
							"blend_file":"mask_basics.blend"
						},
						{
							"name":"Droplets",
							"thumbnail":"Droplets.jpg",
							"asset_type":0,
							"blend_file":"mask_basics.blend"
						},
						{
							"name":"Damage",
							"thumbnail":"Damage.jpg",
							"asset_type":0,
							"blend_file":"mask_basics.blend"
						},
						{
							"name":"Cracks Detailed",
							"thumbnail":"Cracks Detailed.jpg",
							"asset_type":0,
							"blend_file":"mask_basics.blend"
						},
						{
							"name":"Cracks",
							"thumbnail":"Cracks.jpg",
							"asset_type":0,
							"blend_file":"mask_basics.blend"
						},
						{
							"name":"Checker",
							"thumbnail":"Checker.jpg",
							"asset_type":0,
							"blend_file":"mask_basics.blend"
						},
						{
							"name":"Cells",
							"thumbnail":"Cells.jpg",
							"asset_type":0,
							"blend_file":"mask_basics.blend"
						}
					],
					"filter_assets":[
						{
							"name":"RGB Curves",
							"thumbnail":"RGB Curves.jpg",
							"asset_type":1,
							"blend_file":"filter_basics.blend"
						},
						{
							"name":"Mix Color",
							"thumbnail":"Mix Color.png",
							"asset_type":1,
							"blend_file":"filter_basics.blend"
						},
						{
							"name":"Map Range",
							"thumbnail":"Map Range.jpg",
							"asset_type":1,
							"blend_file":"filter_basics.blend"
						},
						{
							"name":"Invert",
							"thumbnail":"Invert.jpg",
							"asset_type":1,
							"blend_file":"filter_basics.blend"
						},
						{
							"name":"HSV",
							"thumbnail":"HSV.jpg",
							"asset_type":1,
							"blend_file":"filter_basics.blend"
						},
						{
							"name":"Gamma",
							"thumbnail":"Gamma.png",
							"asset_type":1,
							"blend_file":"filter_basics.blend"
						},
						{
							"name":"Color Ramp",
							"thumbnail":"Color Ramp.jpg",
							"asset_type":1,
							"blend_file":"filter_basics.blend"
						},
						{
							"name":"Clamp",
							"thumbnail":"Clamp.png",
							"asset_type":1,
							"blend_file":"filter_basics.blend"
						},
						{
							"name":"Bright Contrast",
							"thumbnail":"Bright Contrast.jpg",
							"asset_type":1,
							"blend_file":"filter_basics.blend"
						}
					]
				},
				"ypui":{
					"expand_channels":0,
					"expand_mask_channels":0,
					"show_channels":1,
					"show_layers":1,
					"show_materials":0,
					"show_object":0,
					"show_stats":0,
					"show_support":0,
					"tree_name":"Ucupaint Material.001",
					"show_bake_targets":0,
					"show_test":0
				},
				"yp":{
					"last_object":"Quad Sphere",
					"last_mode":"SCULPT",
					"edit_image_editor_area_index":-1
				},
				"ve_edit":{},
				"assets used":{},
				"uuid":"8b2ee712-d2a6-44f4-93d8-03889cbe36b9",
				"assets reported":{},
				"srr_settings":{
					"status":{
						"is_rendering":0,
						"should_stop":0
					}
				},
				"zen_uv":{
					"ui":{
						"view3d_tool":{}
					}
				},
				"faceit_subscribed":1,
				"faceit_live_mocap_settings":[
					{
						"name":"FACECAP",
						"address":"0.0.0.0",
						"port":9001,
						"rotation_units":0,
						"head_location_multiplier":1.0,
						"rotation_units_variable":0,
						"can_animate_head_rotation":1,
						"can_animate_head_location":1,
						"can_animate_eye_rotation":1
					},
					{
						"name":"EPIC",
						"address":"0.0.0.0",
						"port":11111,
						"rotation_units":1,
						"head_location_multiplier":1.0,
						"rotation_units_variable":0,
						"can_animate_head_rotation":1,
						"can_animate_head_location":0,
						"can_animate_eye_rotation":1
					},
					{
						"name":"TILE",
						"address":"0.0.0.0",
						"port":9001,
						"rotation_units":0,
						"head_location_multiplier":1.0,
						"rotation_units_variable":1,
						"can_animate_head_rotation":1,
						"can_animate_head_location":1,
						"can_animate_eye_rotation":1
					},
					{
						"name":"IFACIALMOCAP",
						"address":"0.0.0.0",
						"port":49983,
						"rotation_units":0,
						"head_location_multiplier":100.0,
						"rotation_units_variable":0,
						"can_animate_head_rotation":1,
						"can_animate_head_location":1,
						"can_animate_eye_rotation":1
					},
					{
						"name":"A2F",
						"address":"0.0.0.0",
						"port":9001,
						"rotation_units":0,
						"head_location_multiplier":1.0,
						"rotation_units_variable":0,
						"can_animate_head_rotation":0,
						"can_animate_head_location":0,
						"can_animate_eye_rotation":0
					}
				],
				"faceit_workspace":{},
				"faceit_pin_panels":{},
				"faceit_control_armature":{},
				"hair_object":{},
				"faceit_body_armature":{},
				"faceit_armature":{},
				"storypencil_main_workspace":{},
				"storypencil_main_scene":{},
				"faceit_osc_receiver_enabled":0,
				"CCICLinkProps":{},
				"paint_system_settings":{},
				"fluid_painter":{},
				"coat3D":{},
				"storytools_settings":{},
				"CC3ImportProps":{},
				"qremesher":{
					"target_count":200
				},
				"bsurfaces":{
					"SURFSK_mesh":{}
				},
				"GodotPipelineProps":{
					"global_UI":1,
					"object_name":"revolver",
					"collision_UI":1,
					"col_types":6,
					"body_types":5,
					"display_wire":1,
					"export_UI":1,
					"save_path":"C:\\Users\\sokky\\Documents\\Godot\\stiletto-proto\\assets\\player\\revolver.gltf",
					"counter":1
				}
			},
			"name":"Scene",
			"nodes":[
				0
			]
		}
	],
	"nodes":[
		{
			"mesh":0,
			"name":"gunframe.001",
			"scale":[
				0.27011024951934814,
				0.07901003956794739,
				0.06511896103620529
			],
			"translation":[
				0.5806788206100464,
				1.1260071992874146,
				0
			]
		}
	],
	"materials":[
		{
			"doubleSided":true,
			"extras":{
				"lp":{
					"uid":"de2d25d229"
				},
				"zen_uv":{
					"world_size_image":{},
					"trimsheet_image":{}
				},
				"paint_system":{}
			},
			"name":"Material",
			"pbrMetallicRoughness":{
				"baseColorFactor":[
					0.800000011920929,
					0.800000011920929,
					0.800000011920929,
					1
				],
				"metallicFactor":0,
				"roughnessFactor":0.5
			}
		}
	],
	"meshes":[
		{
			"name":"Cube.011",
			"primitives":[
				{
					"attributes":{
						"POSITION":0,
						"NORMAL":1,
						"TEXCOORD_0":2
					},
					"indices":3,
					"material":0
				}
			]
		}
	],
	"accessors":[
		{
			"bufferView":0,
			"componentType":5126,
			"count":636,
			"max":[
				4.620511531829834,
				12.17696762084961,
				6.582662582397461
			],
			"min":[
				-8.542920112609863,
				-16.03592300415039,
				-5.853158950805664
			],
			"type":"VEC3"
		},
		{
			"bufferView":1,
			"componentType":5126,
			"count":636,
			"type":"VEC3"
		},
		{
			"bufferView":2,
			"componentType":5126,
			"count":636,
			"type":"VEC2"
		},
		{
			"bufferView":3,
			"componentType":5123,
			"count":2394,
			"type":"SCALAR"
		}
	],
	"bufferViews":[
		{
			"buffer":0,
			"byteLength":7632,
			"byteOffset":0,
			"target":34962
		},
		{
			"buffer":0,
			"byteLength":7632,
			"byteOffset":7632,
			"target":34962
		},
		{
			"buffer":0,
			"byteLength":5088,
			"byteOffset":15264,
			"target":34962
		},
		{
			"buffer":0,
			"byteLength":4788,
			"byteOffset":20352,
			"target":34963
		}
	],
	"buffers":[
		{
			"byteLength":25140,
			"uri":"revolver.bin"
		}
	]
}
